<?xml version="1.0" encoding="UTF-8" standalone="no"?>
<svg
   xmlns:dc="http://purl.org/dc/elements/1.1/"
   xmlns:cc="http://creativecommons.org/ns#"
   xmlns:rdf="http://www.w3.org/1999/02/22-rdf-syntax-ns#"
   xmlns:svg="http://www.w3.org/2000/svg"
   xmlns="http://www.w3.org/2000/svg"
   xmlns:sodipodi="http://sodipodi.sourceforge.net/DTD/sodipodi-0.dtd"
   xmlns:inkscape="http://www.inkscape.org/namespaces/inkscape"
   width="210mm"
   height="297mm"
   viewBox="0 0 210 297"
   version="1.1"
   id="svg2450"
   inkscape:version="1.0.2 (e86c870879, 2021-01-15)"
   sodipodi:docname="icon.svg">
  <defs
     id="defs2444">
    <rect
       x="11.595284"
       y="202.83725"
       width="196.94327"
       height="24.663707"
       id="rect864" />
    <rect
       x="9.5372977"
       y="206.68725"
       width="199.07191"
       height="19.920992"
       id="rect858" />
    <rect
       x="30.681995"
       y="166.34164"
       width="151.41775"
       height="30.102338"
       id="rect852" />
  </defs>
  <sodipodi:namedview
     id="base"
     pagecolor="#ffffff"
     bordercolor="#666666"
     borderopacity="1.0"
     inkscape:pageopacity="0.0"
     inkscape:pageshadow="2"
     inkscape:zoom="0.45254835"
     inkscape:cx="198.03944"
     inkscape:cy="543.63889"
     inkscape:document-units="mm"
     inkscape:current-layer="layer1"
     inkscape:document-rotation="0"
     showgrid="true"
     showguides="true"
     inkscape:object-paths="true"
     inkscape:window-width="1366"
     inkscape:window-height="715"
     inkscape:window-x="0"
     inkscape:window-y="0"
     inkscape:window-maximized="1" />
  <metadata
     id="metadata2447">
    <rdf:RDF>
      <cc:Work
         rdf:about="">
        <dc:format>image/svg+xml</dc:format>
        <dc:type
           rdf:resource="http://purl.org/dc/dcmitype/StillImage" />
        <dc:title />
      </cc:Work>
    </rdf:RDF>
  </metadata>
  <g
     inkscape:label="Layer 1"
     inkscape:groupmode="layer"
     id="layer1">
    <g
       id="g4606"
       transform="matrix(1,0,0,1.0289336,-12.325761,-77.255977)">
      <path
         style="fill:#ffcc00;fill-opacity:1;stroke-width:0.359541"
         d="m 107.468,209.40328 c -4.13407,-0.57544 -12.101954,-2.73702 -16.658936,-4.51934 -7.362856,-2.87975 -14.844319,-7.64716 -21.890604,-13.94935 -6.192268,-5.53836 -13.486102,-17.08793 -16.399116,-25.96753 -2.870709,-8.75065 -2.892672,-8.84459 -3.109173,-13.29995 l -0.211028,-4.34272 9.857668,-0.25944 c 5.421717,-0.14269 9.933629,-0.184 10.026471,-0.0918 0.09284,0.0922 0.268076,1.59887 0.389409,3.34815 0.193563,2.79064 0.457502,3.72782 2.153149,7.64525 2.696087,6.22874 5.059049,10.19334 7.691769,12.90532 1.239731,1.27706 2.392289,2.68297 2.561236,3.12425 0.483451,1.26273 7.498411,6.78734 10.648385,8.38611 1.56972,0.7967 3.097576,1.66041 3.395234,1.91935 0.297659,0.25893 1.072068,0.58285 1.720912,0.71983 0.648845,0.13697 2.674604,0.71829 4.501674,1.29181 1.82708,0.57352 4.64817,1.22701 6.26909,1.45219 l 2.94713,0.40941 0.46367,4.16085 c 0.25502,2.28846 0.44088,4.4833 0.41302,4.87742 -0.0279,0.39412 -0.0703,3.41719 -0.0944,6.71793 -0.0504,6.91321 0.5583,6.2008 -4.67557,5.47227 z m 9.37887,-6.73524 c -10e-4,-3.78846 -0.10432,-8.42422 -0.22954,-10.30169 l -0.22767,-3.41357 0.99928,-0.45214 c 0.5496,-0.24867 2.31707,-0.61816 3.92771,-0.82108 5.10099,-0.64266 12.63907,-3.44902 17.94035,-6.67904 l 2.38397,-1.45253 6.90657,6.86532 c 3.79861,3.77592 6.90657,6.98089 6.90657,7.12215 0,0.14125 -1.1771,1.12855 -2.61579,2.194 -9.22399,6.83101 -20.75783,11.68773 -31.11881,13.10363 -1.58751,0.21694 -3.33287,0.46838 -3.87858,0.55875 l -0.99219,0.16431 -0.002,-6.88811 z m 35.44856,-19.3592 -7.30786,-7.57386 2.68332,-2.69679 c 1.47583,-1.48324 3.39022,-3.65824 4.2542,-4.83333 l 1.57088,-2.13653 10.99121,0.10902 c 6.04517,0.06 11.03533,0.15158 11.08925,0.20359 0.26706,0.25759 -3.34733,8.09881 -4.847,10.51528 -3.00714,4.84552 -10.18553,14.09883 -10.87363,14.01664 -0.13888,-0.0166 -3.54105,-3.4384 -7.56037,-7.60402 z m -44.95523,-12.79107 0.24201,-3.66721 -4.29648,0.098 c -2.36307,0.0539 -6.6101,0.0735 -9.437853,0.0435 l -5.14137,-0.0544 v -2.32888 -2.32888 h 9.163385 9.163378 l 0.24437,-4.74733 c 0.13441,-2.61104 0.19163,-6.19841 0.12717,-7.97194 l -0.11721,-3.2246 -8.698933,0.12961 c -4.784411,0.0713 -9.046335,0.0201 -9.470944,-0.11372 -0.810907,-0.25558 -0.951528,-1.00558 -0.55639,-2.96752 l 0.21562,-1.07062 8.17293,-0.29863 c 4.495107,-0.16426 8.709107,-0.30724 9.364437,-0.31776 l 1.19152,-0.0191 -0.0656,-3.50668 c -0.0361,-1.92867 0.01,-3.5816 0.10206,-3.67318 0.34788,-0.34544 22.18408,-0.17546 24.09066,0.18754 1.08674,0.2069 2.62915,0.72236 3.42758,1.14546 0.79843,0.4231 1.77641,0.9331 2.17329,1.13333 0.39688,0.20023 1.69575,1.48414 2.88638,2.85312 1.19063,1.36899 2.52272,2.87161 2.96018,3.33918 0.43747,0.46756 0.68101,0.85523 0.5412,0.8615 -0.13981,0.006 0.061,0.24812 0.44616,0.53743 0.38519,0.28933 0.56826,0.52604 0.40681,0.52604 -0.16144,0 -0.0914,0.24185 0.15562,0.53744 0.38796,0.4642 2.83396,0.53743 17.95099,0.53743 H 180.083 l -0.1889,6.71792 c -0.14407,5.12334 -0.33893,7.13443 -0.82095,8.47262 l -0.63205,1.7547 -17.22203,-0.25893 -17.22204,-0.25893 -0.95155,2.8037 c -0.52336,1.54204 -1.00117,3.01814 -1.06181,3.28022 -0.0606,0.26208 -0.34236,0.62238 -0.62606,0.80066 -0.28369,0.17829 -0.3682,0.32662 -0.18779,0.32964 0.18041,0.003 -0.37794,0.69072 -1.24077,1.52822 -0.86283,0.8375 -1.70047,1.48242 -1.86141,1.43315 -0.16094,-0.0493 -0.29262,0.0905 -0.29262,0.31049 0,0.23353 -0.37546,0.32878 -0.90199,0.22883 -0.4961,-0.0942 -0.90199,-0.0353 -0.90199,0.13088 0,0.16616 -4.18075,0.31738 -9.29055,0.33603 -5.1098,0.0187 -11.60619,0.12055 -14.43642,0.22642 l -5.14587,0.1925 0.24201,-3.66722 z m -52.999687,-28.57003 -5.321769,-0.10949 0.0099,-1.15486 c 0.0055,-0.63518 0.322189,-3.33147 0.703827,-5.99177 1.224145,-8.53318 4.450638,-15.77565 12.210658,-27.40912 4.915578,-7.369206 9.048175,-11.695733 14.857009,-15.554203 8.657756,-5.750841 13.940017,-8.263748 20.854899,-9.921206 8.454383,-2.02647 17.493623,-2.438559 26.631623,-1.214108 5.9711,0.800101 10.96986,2.269223 16.58111,4.873142 l 3.376,1.566645 -5.41633,8.954169 -5.41634,8.954171 -1.48862,-0.93319 c -1.83791,-1.15216 -6.47525,-2.73975 -11.40759,-3.90539 -2.87548,-0.679551 -4.71368,-0.881536 -8.02258,-0.881536 -5.15824,0 -6.3017,0.250615 -12.654854,2.773596 -12.86034,5.10713 -17.51119,8.92912 -24.310286,19.97777 -3.004549,4.88244 -5.942988,13.25752 -5.942988,16.93857 0,0.42484 -0.27361,1.3422 -0.608021,2.0386 l -0.608022,1.26617 -4.352949,-0.0792 c -2.394122,-0.0436 -6.747745,-0.1285 -9.674717,-0.18873 z m 101.151977,-14.8533 c -2.86216,-7.42336 -8.15936,-14.39609 -13.86674,-18.25288 -1.91445,-1.2937 -3.11427,-2.33476 -3.00794,-2.60992 0.31314,-0.81037 10.02996,-16.684453 10.21285,-16.684453 0.77133,0 6.79414,4.456359 9.63742,7.130857 2.29381,2.157637 8.16626,9.088666 10.95802,12.933336 1.74763,2.40674 2.67095,4.22637 4.40246,8.67615 2.13985,5.49918 2.59375,7.69181 1.83827,8.88002 -0.28718,0.45166 -1.899,0.55436 -10.09945,0.64347 l -9.75773,0.10603 z"
         id="path4620" />
      <path
         style="fill:#ffffff;stroke-width:0.359541"
         d="m 107.468,209.40328 c -4.13407,-0.57544 -12.101954,-2.73702 -16.658936,-4.51934 -7.362856,-2.87975 -14.844319,-7.64716 -21.890604,-13.94935 -6.192268,-5.53836 -13.486102,-17.08793 -16.399116,-25.96753 -2.870709,-8.75065 -2.892672,-8.84459 -3.109173,-13.29995 l -0.211028,-4.34272 9.857668,-0.25944 c 5.421717,-0.14269 9.933629,-0.184 10.026471,-0.0918 0.09284,0.0922 0.268076,1.59887 0.389409,3.34815 0.193563,2.79064 0.457502,3.72782 2.153149,7.64525 2.696087,6.22874 5.059049,10.19334 7.691769,12.90532 1.239731,1.27706 2.392289,2.68297 2.561236,3.12425 0.483451,1.26273 7.498411,6.78734 10.648385,8.38611 1.56972,0.7967 3.097576,1.66041 3.395234,1.91935 0.297659,0.25893 1.072068,0.58285 1.720912,0.71983 0.648845,0.13697 2.674604,0.71829 4.501674,1.29181 1.82708,0.57352 4.64817,1.22701 6.26909,1.45219 l 2.94713,0.40941 0.46367,4.16085 c 0.25502,2.28846 0.44088,4.4833 0.41302,4.87742 -0.0279,0.39412 -0.0703,3.41719 -0.0944,6.71793 -0.0504,6.91321 0.5583,6.2008 -4.67557,5.47227 z m 44.82743,-26.09444 -7.30786,-7.57386 2.68332,-2.69679 c 1.47583,-1.48324 3.39022,-3.65824 4.2542,-4.83333 l 1.57088,-2.13653 10.99121,0.10902 c 6.04517,0.06 11.03533,0.15158 11.08925,0.20359 0.26706,0.25759 -3.34733,8.09881 -4.847,10.51528 -3.00714,4.84552 -10.18553,14.09883 -10.87363,14.01664 -0.13888,-0.0166 -3.54105,-3.4384 -7.56037,-7.60402 z m -44.95523,-12.79107 0.24201,-3.66721 -4.29648,0.098 c -2.36307,0.0539 -6.6101,0.0735 -9.437853,0.0435 l -5.14137,-0.0544 v -2.32888 -2.32888 h 9.163385 9.163378 l 0.24437,-4.74733 c 0.13441,-2.61104 0.19163,-6.19841 0.12717,-7.97194 l -0.11721,-3.2246 -8.698933,0.12961 c -4.784411,0.0713 -9.046335,0.0201 -9.470944,-0.11372 -0.810907,-0.25558 -0.951528,-1.00558 -0.55639,-2.96752 l 0.21562,-1.07062 8.17293,-0.29863 c 4.495107,-0.16426 8.709107,-0.30724 9.364437,-0.31776 l 1.19152,-0.0191 -0.0656,-3.50668 c -0.0361,-1.92867 0.01,-3.5816 0.10206,-3.67318 0.34788,-0.34544 22.18408,-0.17546 24.09066,0.18754 1.08674,0.2069 2.62915,0.72236 3.42758,1.14546 0.79843,0.4231 1.77641,0.9331 2.17329,1.13333 0.39688,0.20023 1.69575,1.48414 2.88638,2.85312 1.19063,1.36899 2.52272,2.87161 2.96018,3.33918 0.43747,0.46756 0.68101,0.85523 0.5412,0.8615 -0.13981,0.006 0.061,0.24812 0.44616,0.53743 0.38519,0.28933 0.56826,0.52604 0.40681,0.52604 -0.16144,0 -0.0914,0.24185 0.15562,0.53744 0.38796,0.4642 2.83396,0.53743 17.95099,0.53743 H 180.083 l -0.1889,6.71792 c -0.14407,5.12334 -0.33893,7.13443 -0.82095,8.47262 l -0.63205,1.7547 -17.22203,-0.25893 -17.22204,-0.25893 -0.95155,2.8037 c -0.52336,1.54204 -1.00117,3.01814 -1.06181,3.28022 -0.0606,0.26208 -0.34236,0.62238 -0.62606,0.80066 -0.28369,0.17829 -0.3682,0.32662 -0.18779,0.32964 0.18041,0.003 -0.37794,0.69072 -1.24077,1.52822 -0.86283,0.8375 -1.70047,1.48242 -1.86141,1.43315 -0.16094,-0.0493 -0.29262,0.0905 -0.29262,0.31049 0,0.23353 -0.37546,0.32878 -0.90199,0.22883 -0.4961,-0.0942 -0.90199,-0.0353 -0.90199,0.13088 0,0.16616 -4.18075,0.31738 -9.29055,0.33603 -5.1098,0.0187 -11.60619,0.12055 -14.43642,0.22642 l -5.14587,0.1925 0.24201,-3.66722 z m -52.999687,-28.57003 -5.321769,-0.10949 0.0099,-1.15486 c 0.0055,-0.63518 0.322189,-3.33147 0.703827,-5.99177 1.224145,-8.53318 4.450638,-15.77565 12.210658,-27.40912 4.915578,-7.369206 9.048175,-11.695733 14.857009,-15.554203 8.657756,-5.750841 13.940017,-8.263748 20.854899,-9.921206 8.454383,-2.02647 17.493623,-2.438559 26.631623,-1.214108 5.9711,0.800101 10.96986,2.269223 16.58111,4.873142 l 3.376,1.566645 -5.41633,8.954169 -5.41634,8.954171 -1.48862,-0.93319 c -1.83791,-1.15216 -6.47525,-2.73975 -11.40759,-3.90539 -2.87548,-0.679551 -4.71368,-0.881536 -8.02258,-0.881536 -5.15824,0 -6.3017,0.250615 -12.654854,2.773596 -12.86034,5.10713 -17.51119,8.92912 -24.310286,19.97777 -3.004549,4.88244 -5.942988,13.25752 -5.942988,16.93857 0,0.42484 -0.27361,1.3422 -0.608021,2.0386 l -0.608022,1.26617 -4.352949,-0.0792 c -2.394122,-0.0436 -6.747745,-0.1285 -9.674717,-0.18873 z m 101.151977,-14.8533 c -2.86216,-7.42336 -8.15936,-14.39609 -13.86674,-18.25288 -1.91445,-1.2937 -3.11427,-2.33476 -3.00794,-2.60992 0.31314,-0.81037 10.02996,-16.684453 10.21285,-16.684453 0.77133,0 6.79414,4.456359 9.63742,7.130857 2.29381,2.157637 8.16626,9.088666 10.95802,12.933336 1.74763,2.40674 2.67095,4.22637 4.40246,8.67615 2.13985,5.49918 2.59375,7.69181 1.83827,8.88002 -0.28718,0.45166 -1.899,0.55436 -10.09945,0.64347 l -9.75773,0.10603 z"
         id="path4618" />
      <path
         style="fill:#ff0000;stroke-width:0.359541"
         d="m 106.2052,209.03468 c -4.39117,-0.71273 -10.99057,-2.55926 -15.407779,-4.31115 -7.63988,-3.03003 -14.233702,-7.19276 -21.333215,-13.46781 -3.438298,-3.03902 -4.407603,-4.18134 -8.05884,-9.49726 -5.930019,-8.63365 -7.14562,-11.20539 -10.392535,-21.9866 -0.956964,-3.17754 -1.297903,-5.0836 -1.490042,-8.33022 l -0.249145,-4.2099 h 8.847396 c 4.866069,0 9.331378,-0.0961 9.922911,-0.2136 l 1.075514,-0.21361 0.257501,3.48357 c 0.233119,3.15373 0.445472,3.91184 2.242659,8.0064 2.502225,5.70086 5.200152,10.40762 6.521946,11.37807 0.561661,0.41237 1.714071,1.77954 2.56091,3.03817 1.768606,2.62862 8.190303,8.1313 10.85569,9.30213 0.908442,0.39906 2.383813,1.18525 3.278602,1.7471 1.894607,1.18965 8.936817,3.37363 13.352817,4.14108 1.68673,0.29313 3.08331,0.53319 3.1035,0.53346 0.26291,0.004 0.62827,7.56997 0.65312,13.52588 l 0.0318,7.61363 -1.44319,-0.0354 c -0.79376,-0.0195 -2.74207,-0.24624 -4.32958,-0.50391 z m 46.09023,-25.72584 -7.30786,-7.57386 2.68332,-2.69679 c 1.47583,-1.48324 3.39022,-3.65824 4.2542,-4.83333 l 1.57088,-2.13653 10.99121,0.10902 c 6.04517,0.06 11.03533,0.15158 11.08925,0.20359 0.26706,0.25759 -2.84332,7.21659 -4.847,10.51528 -3.06987,5.05399 -10.18553,14.09883 -10.87363,14.01664 -0.13888,-0.0166 -3.54105,-3.4384 -7.56037,-7.60402 z m -44.9581,-12.74752 0.23914,-3.62367 h -9.434983 -9.43498 v -2.32888 -2.32888 h 9.14593 9.145923 l 0.23295,-3.49332 c 0.12812,-1.92133 0.23379,-5.53479 0.23482,-8.02992 l 0.002,-4.53659 -9.200341,0.20233 -9.200345,0.20234 -0.02536,-0.86093 c -0.0236,-0.80114 -0.04689,-0.81117 -0.335438,-0.14436 -0.279336,0.64553 -0.312595,0.62333 -0.335437,-0.22393 -0.01396,-0.51728 0.0727,-1.42742 0.192558,-2.02253 l 0.217922,-1.08202 9.343221,-0.26228 9.34329,-0.26229 v -3.71653 -3.71653 l 7.30615,-0.0308 c 16.14069,-0.068 18.42561,0.16384 21.358,2.16736 0.8531,0.58286 1.67894,0.94519 1.83522,0.80517 0.15627,-0.14001 0.17238,-0.0611 0.0358,0.17531 -0.14279,0.24716 0.0669,0.59744 0.49335,0.82407 0.40793,0.2168 1.69466,1.58505 2.85939,3.04055 1.16474,1.45551 2.2291,2.53575 2.36526,2.40054 0.13615,-0.13521 0.2148,-0.0846 0.17476,0.11245 -0.15583,0.767 0.0297,1.28584 0.3824,1.06938 0.20335,-0.1248 0.34648,-0.094 0.31807,0.0684 -0.20804,1.18926 -0.18124,1.19106 17.76019,1.19106 h 17.72641 l -0.1889,6.71792 c -0.14363,5.10782 -0.33956,7.13604 -0.81747,8.46246 l -0.62856,1.74454 -17.22456,-0.26453 -17.22455,-0.26453 -0.79359,2.46117 c -0.43647,1.35365 -1.0419,2.84379 -1.3454,3.31143 -0.41767,0.64357 -0.43308,0.78844 -0.0634,0.59592 0.26864,-0.13989 0.0825,0.0961 -0.41357,0.52441 -0.49609,0.42832 -0.65845,0.65779 -0.36079,0.50992 0.29765,-0.14786 0.0541,0.1787 -0.5412,0.72568 -0.59532,0.54698 -1.38061,1.3392 -1.7451,1.76048 -0.36449,0.42128 -0.559,0.56627 -0.43226,0.3222 0.15197,-0.29263 0.0405,-0.37136 -0.32742,-0.23117 -0.30682,0.11692 -0.45414,0.37923 -0.32738,0.58292 0.15281,0.24552 -0.24307,0.28877 -1.17466,0.12831 -0.95177,-0.16394 -1.23711,-0.13039 -0.88434,0.10397 0.34249,0.22753 -2.68393,0.3652 -8.83955,0.40207 -5.14819,0.0309 -11.676,0.14132 -14.50623,0.24551 l -5.14587,0.18944 z M 49.437215,138.72238 c 0.839025,-10.06044 3.516034,-17.22339 10.544897,-28.21528 7.559691,-11.822006 11.642453,-15.762843 23.700394,-22.87652 6.826623,-4.027421 13.532942,-6.115647 23.280094,-7.248999 8.30744,-0.965948 18.77194,-0.02813 26.30244,2.357191 3.90828,1.237967 10.64354,4.05571 10.64354,4.452798 0,0.277103 -9.8218,16.48661 -10.30204,17.00208 -0.38853,0.41703 -0.63311,0.37184 -1.56896,-0.28992 -2.69467,-1.90543 -14.51644,-5.058355 -18.78777,-5.010791 -5.12202,0.05704 -8.1649,0.718764 -13.719367,2.983521 -13.007748,5.30373 -18.431632,9.93283 -24.805653,21.17076 -2.641613,4.65739 -5.140568,12.19495 -5.140568,15.50542 0,0.42484 -0.27361,1.3422 -0.608021,2.0386 l -0.608022,1.26617 h -9.59621 -9.596211 z M 154.37023,124.20846 c -1.48044,-3.38656 -4.48192,-7.87881 -6.90167,-10.32959 -0.4697,-0.47572 -1.2599,-1.35272 -1.75599,-1.94888 -0.4961,-0.59616 -2.3157,-2.06319 -4.04356,-3.26005 l -3.14157,-2.17612 5.12531,-8.436528 5.12531,-8.436528 0.91898,0.471918 c 3.38762,1.739625 9.99796,7.765036 14.73132,13.427778 6.33719,7.58148 7.64713,9.87458 10.73492,18.79182 0.82107,2.37117 0.88444,4.57428 0.14464,5.02832 -0.14798,0.0908 -4.5586,0.24883 -9.80137,0.35112 l -9.5323,0.186 z"
         id="path4616"
         sodipodi:nodetypes="sssssscsscssssssscsccssscssccsassccccccccsccccsssscccccssssssssssscsscccsssssssssssscsccssssssssssssscccssssscccssssscs" />
      <path
         style="fill:#00aad4;fill-opacity:1;stroke-width:0.359541"
         d="m 106.2052,209.03468 c -4.39117,-0.71273 -10.99057,-2.55926 -15.407779,-4.31115 -7.63988,-3.03003 -0.838248,-16.71562 -7.937761,-22.99067 -3.438298,-3.03902 -17.803057,5.34152 -21.454294,0.0256 -5.930019,-8.63365 -7.14562,-11.20539 -10.392535,-21.9866 -0.956964,-3.17754 -1.297903,-5.0836 -1.490042,-8.33022 l -0.249145,-4.2099 h 8.847396 c 4.866069,0 9.331378,-0.0961 9.922911,-0.2136 l 1.075514,-0.21361 0.257501,3.48357 c 0.233119,3.15373 0.445472,3.91184 2.242659,8.0064 2.502225,5.70086 5.200152,10.40762 6.521946,11.37807 0.561661,0.41237 1.714071,1.77954 2.56091,3.03817 1.768606,2.62862 8.190303,8.1313 10.85569,9.30213 0.908442,0.39906 2.383813,1.18525 3.278602,1.7471 1.894607,1.18965 8.936817,3.37363 13.352817,4.14108 1.68673,0.29313 3.08331,0.53319 3.1035,0.53346 0.26291,0.004 0.62827,7.56997 0.65312,13.52588 l 0.0318,7.61363 -1.44319,-0.0354 c -0.79376,-0.0195 -2.74207,-0.24624 -4.32958,-0.50391 z m 51.60008,-20.23539 c -1.17123,-1.17535 -2.05762,-2.20779 -1.96974,-2.29431 0.13049,-0.12849 4.05364,-0.81484 8.19067,-1.43294 0.93463,-0.13964 1.01113,-0.27006 -1.8675,3.18381 -0.98542,1.18236 -1.88894,2.26915 -2.00781,2.41509 -0.11886,0.14594 -1.17439,-0.6963 -2.34562,-1.87165 z m -11.02974,-11.38168 -1.24337,-1.34359 1.35299,1.23473 c 0.74415,0.67909 1.35299,1.28371 1.35299,1.34358 0,0.2736 -0.30531,0.0158 -1.46261,-1.23472 z m -39.42008,-6.86886 0.22154,-3.6111 h -9.435246 -9.435247 v -2.32888 -2.32888 h 9.14632 9.146313 l 0.23443,-3.27964 c 0.12894,-1.80381 0.23443,-5.41823 0.23443,-8.03205 v -4.7524 l -9.039102,0.20523 -9.039097,0.20523 -0.221862,-0.84251 c -0.20927,-0.79468 -0.239274,-0.80292 -0.528526,-0.14512 -0.194726,0.44284 -0.242539,-0.007 -0.130987,-1.23222 0.09662,-1.06128 0.221306,-1.97373 0.277078,-2.02767 0.05577,-0.0539 4.22569,-0.19097 9.266483,-0.30453 5.040793,-0.11357 9.244843,-0.28568 9.342323,-0.38249 0.0975,-0.0968 0.19392,-1.78593 0.21432,-3.75362 l 0.0371,-3.57761 7.36186,-0.10315 c 8.93597,-0.12521 16.27856,0.22602 18.35798,0.87813 2.33443,0.7321 5.73541,3.3756 8.04242,6.25119 1.1361,1.4161 2.1635,2.5044 2.28312,2.41846 0.11962,-0.0859 0.14059,-0.053 0.0466,0.0731 -0.094,0.12618 0.10337,0.69049 0.43859,1.25401 l 0.60948,1.0246 h 17.46303 17.46303 l -0.16923,7.07621 c -0.13457,5.62761 -0.29554,7.35988 -0.78627,8.46189 l -0.61705,1.38568 -17.06987,-0.26486 -17.06987,-0.26485 -0.79387,2.46207 c -0.43663,1.35413 -1.0422,2.84468 -1.3457,3.31232 -0.41767,0.64357 -0.43308,0.78844 -0.0634,0.59592 0.26864,-0.13989 0.0825,0.0961 -0.41357,0.52441 -0.49609,0.42832 -0.65845,0.65779 -0.36079,0.50992 0.29765,-0.14786 0.0541,0.1787 -0.5412,0.72568 -0.59532,0.54698 -1.38061,1.3392 -1.7451,1.76048 -0.36449,0.42128 -0.559,0.56627 -0.43226,0.3222 0.15197,-0.29263 0.0405,-0.37136 -0.32742,-0.23117 -0.30682,0.11692 -0.45414,0.37923 -0.32738,0.58292 0.15281,0.24552 -0.24307,0.28877 -1.17466,0.12831 -0.99403,-0.17122 -1.24681,-0.13665 -0.86395,0.11813 0.36994,0.24619 -2.54143,0.37289 -9.20035,0.40039 -5.35785,0.0222 -11.88678,0.12058 -14.50875,0.21878 l -4.7672,0.17854 z m 58.11079,-4.20668 c 0.24805,-0.0994 0.65395,-0.0994 0.90199,0 0.24805,0.0994 0.0451,0.18072 -0.45099,0.18072 -0.4961,0 -0.69905,-0.0813 -0.451,-0.18072 z M 49.437215,138.72238 c 0.839025,-10.06044 3.516034,-17.22339 10.544897,-28.21528 7.559691,-11.822006 11.642453,-15.762843 23.700394,-22.87652 6.826623,-4.027421 13.532942,-6.115647 23.280094,-7.248999 8.30744,-0.965948 18.77194,-0.02813 26.30244,2.357191 3.90828,1.237967 10.64354,4.05571 10.64354,4.452798 0,0.277103 -9.8218,16.48661 -10.30204,17.00208 -0.38853,0.41703 -0.63311,0.37184 -1.56896,-0.28992 -2.69467,-1.90543 -14.51644,-5.058355 -18.78777,-5.010791 -5.12202,0.05704 -8.1649,0.718764 -13.719367,2.983521 -13.007748,5.30373 -18.431632,9.93283 -24.805653,21.17076 -2.641613,4.65739 -5.140568,12.19495 -5.140568,15.50542 0,0.42484 -0.27361,1.3422 -0.608021,2.0386 l -0.608022,1.26617 h -9.59621 -9.596211 z M 154.37023,124.20846 c -1.48044,-3.38656 -4.48192,-7.87881 -6.90167,-10.32959 -0.4697,-0.47572 -1.2599,-1.35272 -1.75599,-1.94888 -0.4961,-0.59616 -2.3157,-2.06319 -4.04356,-3.26005 l -3.14157,-2.17612 5.12531,-8.436528 5.12531,-8.436528 0.91898,0.471918 c 3.38762,1.739625 9.99796,7.765036 14.73132,13.427778 6.33719,7.58148 7.64713,9.87458 10.73492,18.79182 0.82107,2.37117 0.88444,4.57428 0.14464,5.02832 -0.14798,0.0908 -4.5586,0.24883 -9.80137,0.35112 l -9.5323,0.186 z"
         id="path4614"
         sodipodi:nodetypes="sssssscsscssssssscsccssssssssccsscccccccccsscccssssssscsssscscccsscccsssssssssssscsccssssssssssssssssscccssssscccssssscs" />
      <path
         style="fill:#ff0000;stroke-width:0.359541"
         d="m 106.2052,209.03468 c -4.39117,-0.71273 -10.99057,-2.55926 -15.407779,-4.31115 -7.63988,-3.03003 -14.233702,-7.19276 -21.333215,-13.46781 -3.438298,-3.03902 -4.407603,-4.18134 -8.05884,-9.49726 -5.930019,-8.63365 -7.14562,-11.20539 -10.392535,-21.9866 -0.956964,-3.17754 -1.297903,-5.0836 -1.490042,-8.33022 l -0.249145,-4.2099 h 8.847396 c 4.866069,0 9.331378,-0.0961 9.922911,-0.2136 l 1.075514,-0.21361 0.257501,3.48357 c 0.233119,3.15373 0.445472,3.91184 2.242659,8.0064 2.502225,5.70086 5.200152,10.40762 6.521946,11.37807 0.561661,0.41237 1.714071,1.77954 2.56091,3.03817 1.768606,2.62862 8.190303,8.1313 10.85569,9.30213 0.908442,0.39906 2.383813,1.18525 3.278602,1.7471 1.894607,1.18965 8.936817,3.37363 13.352817,4.14108 1.68673,0.29313 3.08331,0.53319 3.1035,0.53346 0.26291,0.004 0.62827,7.56997 0.65312,13.52588 l 0.0318,7.61363 -1.44319,-0.0354 c -0.79376,-0.0195 -2.74207,-0.24624 -4.32958,-0.50391 z m 51.60008,-20.23539 c -1.17123,-1.17535 -2.05762,-2.20779 -1.96974,-2.29431 0.13049,-0.12849 4.05364,-0.81484 8.19067,-1.43294 0.93463,-0.13964 1.01113,-0.27006 -1.8675,3.18381 -0.98542,1.18236 -1.88894,2.26915 -2.00781,2.41509 -0.11886,0.14594 -1.17439,-0.6963 -2.34562,-1.87165 z m -11.02974,-11.38168 -1.24337,-1.34359 1.35299,1.23473 c 0.74415,0.67909 1.35299,1.28371 1.35299,1.34358 0,0.2736 -0.30531,0.0158 -1.46261,-1.23472 z m -39.42008,-6.86886 0.22154,-3.6111 h -9.435246 -9.435247 v -2.32888 -2.32888 h 9.14632 9.146313 l 0.23443,-3.27964 c 0.12894,-1.80381 0.23443,-5.41823 0.23443,-8.03205 v -4.7524 l -9.039102,0.20523 -9.039097,0.20523 -0.221862,-0.84251 c -0.20927,-0.79468 -0.239274,-0.80292 -0.528526,-0.14512 -0.194726,0.44284 -0.242539,-0.007 -0.130987,-1.23222 0.09662,-1.06128 0.221306,-1.97373 0.277078,-2.02767 0.05577,-0.0539 4.22569,-0.19097 9.266483,-0.30453 5.040793,-0.11357 9.244843,-0.28568 9.342323,-0.38249 0.0975,-0.0968 0.19392,-1.78593 0.21432,-3.75362 l 0.0371,-3.57761 7.36186,-0.10315 c 8.93597,-0.12521 16.27856,0.22602 18.35798,0.87813 2.33443,0.7321 5.73541,3.3756 8.04242,6.25119 1.1361,1.4161 2.1635,2.5044 2.28312,2.41846 0.11962,-0.0859 0.14059,-0.053 0.0466,0.0731 -0.094,0.12618 0.10337,0.69049 0.43859,1.25401 l 0.60948,1.0246 h 17.46303 17.46303 l -0.16923,7.07621 c -0.13457,5.62761 -0.29554,7.35988 -0.78627,8.46189 l -0.61705,1.38568 -17.06987,-0.26486 -17.06987,-0.26485 -0.79387,2.46207 c -0.43663,1.35413 -1.0422,2.84468 -1.3457,3.31232 -0.41767,0.64357 -0.43308,0.78844 -0.0634,0.59592 0.26864,-0.13989 0.0825,0.0961 -0.41357,0.52441 -0.49609,0.42832 -0.65845,0.65779 -0.36079,0.50992 0.29765,-0.14786 0.0541,0.1787 -0.5412,0.72568 -0.59532,0.54698 -1.38061,1.3392 -1.7451,1.76048 -0.36449,0.42128 -0.559,0.56627 -0.43226,0.3222 0.15197,-0.29263 0.0405,-0.37136 -0.32742,-0.23117 -0.30682,0.11692 -0.45414,0.37923 -0.32738,0.58292 0.15281,0.24552 -0.24307,0.28877 -1.17466,0.12831 -0.99403,-0.17122 -1.24681,-0.13665 -0.86395,0.11813 0.36994,0.24619 -2.54143,0.37289 -9.20035,0.40039 -5.35785,0.0222 -11.88678,0.12058 -14.50875,0.21878 l -4.7672,0.17854 z m 58.11079,-4.20668 c 0.24805,-0.0994 0.65395,-0.0994 0.90199,0 0.24805,0.0994 -0.28904,0.18072 -0.45099,0.18072 -0.16195,0 -0.69905,-0.0813 -0.451,-0.18072 z m -11.09602,-42.13361 c -1.48044,-3.38656 -4.48192,-7.87881 -6.90167,-10.32959 -0.4697,-0.47572 -1.29892,-1.3992 -1.84272,-2.05217 -0.54379,-0.65298 -2.36429,-2.11936 -4.04554,-3.25864 l -3.05682,-2.0714 5.12794,-8.435624 c 5.87148,-9.658796 4.80273,-9.031835 9.4575,-5.548033 5.20602,3.896375 10.18586,9.133647 15.62088,16.428387 2.53455,3.40182 4.12058,6.69286 6.40828,13.29733 0.79449,2.29363 0.86999,4.67217 0.16212,5.10662 -0.14374,0.0882 -4.55088,0.24409 -9.79365,0.34638 l -9.5323,0.186 z"
         id="path4612"
         sodipodi:nodetypes="sssssscsscssssssscsccssssssssccsscccccccccsscccssssssscsssscscccsscccsssssssssssscsccssassssscsssssscs" />
      <path
         style="fill:#2ca02c;fill-opacity:1;stroke-width:0.359541"
         d="m 106.2052,209.03468 c -4.39117,-0.71273 -10.99057,-2.55926 -15.407779,-4.31115 -7.63988,-3.03003 -14.233702,-7.19276 -21.333215,-13.46781 -3.438298,-3.03902 -4.407603,-4.18134 -8.05884,-9.49726 -5.930019,-8.63365 -7.14562,-11.20539 -10.392535,-21.9866 -0.956964,-3.17754 -1.297903,-5.0836 -1.490042,-8.33022 l -0.249145,-4.2099 h 8.847396 c 4.866069,0 9.331378,-0.0961 9.922911,-0.2136 l 1.075514,-0.21361 0.257501,3.48357 c 0.233119,3.15373 0.445472,3.91184 2.242659,8.0064 2.502225,5.70086 5.200152,10.40762 6.521946,11.37807 0.561661,0.41237 1.714071,1.77954 2.56091,3.03817 1.768606,2.62862 8.190303,8.1313 10.85569,9.30213 0.908442,0.39906 2.383813,1.18525 3.278602,1.7471 1.894607,1.18965 8.936817,3.37363 13.352817,4.14108 1.68673,0.29313 3.08331,0.53319 3.1035,0.53346 0.26291,0.004 0.62827,7.56997 0.65312,13.52588 l 0.0318,7.61363 -1.44319,-0.0354 c -0.79376,-0.0195 -2.74207,-0.24624 -4.32958,-0.50391 z m 48.16503,-84.82622 c -1.48044,-3.38656 -4.48192,-7.87881 -6.90167,-10.32959 -0.4697,-0.47572 -1.29892,-1.3992 -1.84272,-2.05217 -0.54379,-0.65298 -2.36429,-2.11936 -4.04554,-3.25864 l -3.05682,-2.0714 5.12794,-8.435624 c 5.87148,-9.658796 4.80273,-9.031835 9.4575,-5.548033 5.20602,3.896375 10.18586,9.133647 15.62088,16.428387 2.53455,3.40182 4.12058,6.69286 6.40828,13.29733 0.79449,2.29363 0.86999,4.67217 0.16212,5.10662 -0.14374,0.0882 -4.55088,0.24409 -9.79365,0.34638 l -9.5323,0.186 z"
         id="path4610" />
      <path
         style="fill:#000080;stroke-width:0.359541"
         d="m 154.37023,124.20846 c -1.48044,-3.38656 -4.48192,-7.87881 -6.90167,-10.32959 -0.4697,-0.47572 -1.29892,-1.3992 -1.84272,-2.05217 -0.54379,-0.65298 -2.36429,-2.11936 -4.04554,-3.25864 l -3.05682,-2.0714 5.12794,-8.435624 c 5.87148,-9.658796 4.80273,-9.031835 9.4575,-5.548033 5.20602,3.896375 10.18586,9.133647 15.62088,16.428387 2.53455,3.40182 4.12058,6.69286 6.40828,13.29733 0.79449,2.29363 0.86999,4.67217 0.16212,5.10662 -0.14374,0.0882 -4.55088,0.24409 -9.79365,0.34638 l -9.5323,0.186 z"
         id="path4608" />
    </g>
    <text
       xml:space="preserve"
       id="text850"
       style="font-style:normal;font-variant:normal;font-weight:normal;font-stretch:normal;font-size:10.5833px;line-height:1.25;font-family:Nixmat;-inkscape-font-specification:'Nixmat, Normal';font-variant-ligatures:normal;font-variant-caps:normal;font-variant-numeric:normal;font-variant-east-asian:normal;white-space:pre;shape-inside:url(#rect852);fill:#0044aa;fill-opacity:1;stroke:none;"
       transform="matrix(3.4543722,0,0,3.9295428,-90.997108,-509.55626)"><tspan
         x="30.681641"
         y="176.13135"><tspan
           style="font-style:normal;font-variant:normal;font-weight:normal;font-stretch:normal;font-size:10.5833px;font-family:Nixmat;-inkscape-font-specification:'Nixmat, Normal';font-variant-ligatures:normal;font-variant-caps:normal;font-variant-numeric:normal;font-variant-east-asian:normal;fill:#0044aa">GRAMICS</tspan></tspan></text>
    <text
       xml:space="preserve"
       id="text856"
       style="fill:black;fill-opacity:1;line-height:1.25;stroke:none;font-family:sans-serif;font-style:normal;font-weight:normal;font-size:10.58333333px;white-space:pre;shape-inside:url(#rect858);" />
    <text
       xml:space="preserve"
       id="text862"
       style="font-style:normal;font-variant:normal;font-weight:normal;font-stretch:normal;font-size:10.5833px;line-height:1.25;font-family:Nixmat;-inkscape-font-specification:'Nixmat, Normal';font-variant-ligatures:normal;font-variant-caps:normal;font-variant-numeric:normal;font-variant-east-asian:normal;white-space:pre;shape-inside:url(#rect864);fill:#0088aa;fill-opacity:1;stroke:none;"
       transform="matrix(1.6643185,0,0,1.9001066,-6.1879546,-206.62135)"><tspan
         x="11.595703"
         y="212.62744"><tspan
           style="font-style:normal;font-variant:normal;font-weight:normal;font-stretch:normal;font-size:10.5833px;font-family:Nixmat;-inkscape-font-specification:'Nixmat, Normal';font-variant-ligatures:normal;font-variant-caps:normal;font-variant-numeric:normal;font-variant-east-asian:normal;fill:#0088aa">CONNECTING LIVES</tspan></tspan></text>
  </g>
</svg>
